<svg width="200" height="200" xmlns="http://www.w3.org/2000/svg"><g fill-rule="nonzero" fill="none"><path fill="#FFF" d="M0 0h200v200H0z"/><path d="M0 0h8v8H0zM0 8h8v8H0zM0 16h8v8H0zM0 24h8v8H0zM0 32h8v8H0zM0 40h8v8H0zM0 48h8v8H0zM0 64h8v8H0zM0 80h8v8H0zM0 88h8v8H0zM0 104h8v8H0zM0 120h8v8H0zM0 144h8v8H0zM0 152h8v8H0zM0 160h8v8H0zM0 168h8v8H0zM0 176h8v8H0zM0 184h8v8H0zM0 192h8v8H0zM8 0h8v8H8zM8 48h8v8H8zM8 64h8v8H8zM8 88h8v8H8zM8 96h8v8H8zM8 112h8v8H8zM8 144h8v8H8zM8 192h8v8H8zM16 0h8v8h-8zM16 16h8v8h-8zM16 24h8v8h-8zM16 32h8v8h-8zM16 48h8v8h-8zM16 72h8v8h-8zM16 88h8v8h-8zM16 96h8v8h-8zM16 104h8v8h-8zM16 128h8v8h-8zM16 144h8v8h-8zM16 160h8v8h-8zM16 168h8v8h-8zM16 176h8v8h-8zM16 192h8v8h-8zM24 0h8v8h-8zM24 16h8v8h-8zM24 24h8v8h-8zM24 32h8v8h-8zM24 48h8v8h-8zM24 64h8v8h-8zM24 72h8v8h-8zM24 96h8v8h-8zM24 104h8v8h-8zM24 144h8v8h-8zM24 160h8v8h-8zM24 168h8v8h-8zM24 176h8v8h-8zM24 192h8v8h-8zM32 0h8v8h-8zM32 16h8v8h-8zM32 24h8v8h-8zM32 32h8v8h-8zM32 48h8v8h-8zM32 80h8v8h-8zM32 104h8v8h-8zM32 120h8v8h-8zM32 128h8v8h-8zM32 144h8v8h-8zM32 160h8v8h-8zM32 168h8v8h-8zM32 176h8v8h-8zM32 192h8v8h-8zM40 0h8v8h-8zM40 48h8v8h-8zM40 96h8v8h-8zM40 104h8v8h-8zM40 120h8v8h-8zM40 144h8v8h-8zM40 192h8v8h-8zM48 0h8v8h-8zM48 8h8v8h-8zM48 16h8v8h-8zM48 24h8v8h-8zM48 32h8v8h-8zM48 40h8v8h-8zM48 48h8v8h-8zM48 64h8v8h-8zM48 80h8v8h-8zM48 96h8v8h-8zM48 112h8v8h-8zM48 128h8v8h-8zM48 144h8v8h-8zM48 152h8v8h-8zM48 160h8v8h-8zM48 168h8v8h-8zM48 176h8v8h-8zM48 184h8v8h-8zM48 192h8v8h-8zM56 64h8v8h-8zM56 72h8v8h-8zM56 80h8v8h-8zM56 96h8v8h-8zM56 120h8v8h-8zM56 128h8v8h-8zM64 8h8v8h-8zM64 16h8v8h-8zM64 32h8v8h-8zM64 40h8v8h-8zM64 48h8v8h-8zM64 56h8v8h-8zM64 80h8v8h-8zM64 96h8v8h-8zM64 104h8v8h-8zM64 120h8v8h-8zM64 136h8v8h-8zM64 144h8v8h-8zM64 168h8v8h-8zM64 184h8v8h-8zM64 192h8v8h-8zM72 0h8v8h-8zM72 16h8v8h-8zM72 24h8v8h-8zM72 40h8v8h-8zM72 56h8v8h-8zM72 80h8v8h-8zM72 104h8v8h-8zM72 112h8v8h-8zM72 120h8v8h-8zM72 128h8v8h-8zM72 144h8v8h-8zM72 160h8v8h-8zM72 176h8v8h-8zM80 16h8v8h-8zM80 24h8v8h-8zM80 48h8v8h-8zM80 64h8v8h-8zM80 72h8v8h-8zM80 80h8v8h-8zM80 104h8v8h-8zM80 112h8v8h-8zM80 128h8v8h-8zM80 144h8v8h-8zM80 176h8v8h-8zM80 184h8v8h-8zM80 192h8v8h-8zM88 8h8v8h-8zM88 16h8v8h-8zM88 24h8v8h-8zM88 40h8v8h-8zM88 72h8v8h-8zM88 104h8v8h-8zM88 128h8v8h-8zM88 152h8v8h-8zM88 160h8v8h-8zM88 168h8v8h-8zM88 176h8v8h-8zM88 184h8v8h-8zM88 192h8v8h-8zM96 0h8v8h-8zM96 8h8v8h-8zM96 16h8v8h-8zM96 48h8v8h-8zM96 56h8v8h-8zM96 96h8v8h-8zM96 104h8v8h-8zM96 112h8v8h-8zM96 120h8v8h-8zM96 160h8v8h-8zM96 168h8v8h-8zM96 176h8v8h-8zM96 184h8v8h-8zM96 192h8v8h-8zM104 8h8v8h-8zM104 32h8v8h-8zM104 40h8v8h-8zM104 64h8v8h-8zM104 88h8v8h-8zM104 96h8v8h-8zM104 112h8v8h-8zM104 120h8v8h-8zM104 136h8v8h-8zM104 144h8v8h-8zM104 160h8v8h-8zM104 184h8v8h-8zM112 24h8v8h-8zM112 48h8v8h-8zM112 56h8v8h-8zM112 120h8v8h-8zM112 192h8v8h-8zM120 0h8v8h-8zM120 8h8v8h-8zM120 16h8v8h-8zM120 32h8v8h-8zM120 40h8v8h-8zM120 64h8v8h-8zM120 120h8v8h-8zM120 128h8v8h-8zM120 136h8v8h-8zM120 144h8v8h-8zM120 152h8v8h-8zM120 168h8v8h-8zM120 176h8v8h-8zM120 192h8v8h-8zM128 8h8v8h-8zM128 40h8v8h-8zM128 48h8v8h-8zM128 64h8v8h-8zM128 72h8v8h-8zM128 88h8v8h-8zM128 120h8v8h-8zM128 128h8v8h-8zM128 136h8v8h-8zM128 144h8v8h-8zM128 152h8v8h-8zM128 160h8v8h-8zM128 168h8v8h-8zM128 184h8v8h-8zM128 192h8v8h-8zM136 96h8v8h-8zM136 104h8v8h-8zM136 120h8v8h-8zM136 128h8v8h-8zM136 160h8v8h-8zM136 184h8v8h-8zM136 192h8v8h-8zM144 0h8v8h-8zM144 8h8v8h-8zM144 16h8v8h-8zM144 24h8v8h-8zM144 32h8v8h-8zM144 40h8v8h-8zM144 48h8v8h-8zM144 64h8v8h-8zM144 72h8v8h-8zM144 80h8v8h-8zM144 88h8v8h-8zM144 96h8v8h-8zM144 104h8v8h-8zM144 128h8v8h-8zM144 144h8v8h-8zM144 160h8v8h-8zM144 184h8v8h-8zM152 0h8v8h-8zM152 48h8v8h-8zM152 64h8v8h-8zM152 104h8v8h-8zM152 112h8v8h-8zM152 128h8v8h-8zM152 160h8v8h-8zM152 168h8v8h-8zM152 176h8v8h-8zM152 192h8v8h-8zM160 0h8v8h-8zM160 16h8v8h-8zM160 24h8v8h-8zM160 32h8v8h-8zM160 48h8v8h-8zM160 64h8v8h-8zM160 112h8v8h-8zM160 120h8v8h-8zM160 128h8v8h-8zM160 136h8v8h-8zM160 144h8v8h-8zM160 152h8v8h-8zM160 160h8v8h-8zM160 168h8v8h-8zM160 176h8v8h-8zM168 0h8v8h-8zM168 16h8v8h-8zM168 24h8v8h-8zM168 32h8v8h-8zM168 48h8v8h-8zM168 96h8v8h-8zM168 104h8v8h-8zM168 128h8v8h-8zM168 136h8v8h-8zM168 144h8v8h-8zM168 152h8v8h-8zM168 160h8v8h-8zM168 168h8v8h-8zM168 184h8v8h-8zM176 0h8v8h-8zM176 16h8v8h-8zM176 24h8v8h-8zM176 32h8v8h-8zM176 48h8v8h-8zM176 64h8v8h-8zM176 104h8v8h-8zM176 112h8v8h-8zM176 128h8v8h-8zM176 152h8v8h-8zM176 168h8v8h-8zM176 176h8v8h-8zM184 0h8v8h-8zM184 48h8v8h-8zM184 64h8v8h-8zM184 80h8v8h-8zM184 96h8v8h-8zM184 120h8v8h-8zM184 144h8v8h-8zM184 192h8v8h-8zM192 0h8v8h-8zM192 8h8v8h-8zM192 16h8v8h-8zM192 24h8v8h-8zM192 32h8v8h-8zM192 40h8v8h-8zM192 48h8v8h-8zM192 72h8v8h-8zM192 80h8v8h-8zM192 96h8v8h-8zM192 104h8v8h-8zM192 112h8v8h-8zM192 136h8v8h-8zM192 144h8v8h-8zM192 152h8v8h-8zM192 160h8v8h-8zM192 176h8v8h-8zM192 192h8v8h-8z" fill="#222"/></g></svg>
